# xmcd
#
# Track frame offsets: 
#        150
#        28242
#        44068
#        58268
#        72517
#        90511
#        105687
#        127699
#        141755
#        166709
#        181239
#
# Disc length: 2624 seconds
#
# Revision: 2
# Processed by: cddbd v1.5.2PL0 Copyright (c) Steve Scherf et al.
# Submitted via: ExactAudioCopy v1.0b3
#
DISCID=970a3e0b
DTITLE=Karussell - Entweder oder 
DYEAR=1979
DGENRE=Rock
TTITLE0=Entweder oder
TTITLE1=Der Gitarrist
TTITLE2=Autostop
TTITLE3=Whisky
TTITLE4=McDonald
TTITLE5=Fenster zu
TTITLE6=Ehrlich will ich bleiben
TTITLE7=Tanzen
TTITLE8=Ein langer Weg
TTITLE9=Besinnung
TTITLE10=Lebe
EXTD=
EXTT0=
EXTT1=
EXTT2=
EXTT3=
EXTT4=
EXTT5=
EXTT6=
EXTT7=
EXTT8=
EXTT9=
EXTT10=
PLAYORDER=
